<mxfile host="app.diagrams.net" modified="2024-07-05T03:22:19.216Z" agent="Mozilla/5.0 (Windows NT 10.0; Win64; x64) AppleWebKit/537.36 (KHTML, like Gecko) Chrome/126.0.0.0 Safari/537.36" version="24.6.4" etag="UOVel5SvGtRGj6yg1DeS" type="github">
  <diagram name="第 1 页" id="KlCodPHISwtBdp4n0Dzk">
    <mxGraphModel>
      <root>
        <mxCell id="0" />
        <mxCell id="1" parent="0" />
      </root>
    </mxGraphModel>
  </diagram>
</mxfile>
